<?xml version="1.0" encoding="utf-8"?>
<!-- Generator: Adobe Illustrator 16.0.0, SVG Export Plug-In . SVG Version: 6.00 Build 0)  -->
<!DOCTYPE svg PUBLIC "-//W3C//DTD SVG 1.1//EN" "http://www.w3.org/Graphics/SVG/1.1/DTD/svg11.dtd">
<svg version="1.1" id="Layer_1" xmlns="http://www.w3.org/2000/svg" xmlns:xlink="http://www.w3.org/1999/xlink" x="0px" y="0px"
	 width="190.758px" height="325.021px" viewBox="0 0 190.758 325.021" enable-background="new 0 0 190.758 325.021"
	 xml:space="preserve">
<path d="M38.937,54.23h113.811c0.129,0,0.256,0.008,0.385,0.01c-3.73-9.424-6.081-31.879-6.374-38.907
	C146.425,7.333,143.259,0,95.842,0S45.259,7.333,44.926,15.333c-0.292,7.027-2.644,29.482-6.374,38.907
	C38.681,54.239,38.808,54.23,38.937,54.23z"/>
<path d="M152.748,270.791H38.937c-0.129,0-0.256-0.009-0.385-0.01c3.73,9.425,6.082,31.879,6.374,38.906
	c0.333,8,3.499,15.334,50.916,15.334s50.583-7.334,50.916-15.334c0.293-7.027,2.645-29.481,6.374-38.906
	C153.003,270.782,152.876,270.791,152.748,270.791z"/>
<path d="M181.094,103.675V91.577c0-15.656-12.691-28.347-28.347-28.347H38.937c-15.656,0-28.347,12.691-28.347,28.347v141.868
	c0,15.655,12.691,28.346,28.347,28.346h113.811c15.655,0,28.347-12.69,28.347-28.346v-93.787c5.352-0.091,9.664-4.45,9.664-9.824
	v-16.336C190.758,108.125,186.446,103.766,181.094,103.675z M172.094,233.445c0,10.667-8.679,19.346-19.347,19.346H38.937
	c-10.668,0-19.347-8.679-19.347-19.346V91.577c0-10.668,8.679-19.347,19.347-19.347h113.811c10.668,0,19.347,8.679,19.347,19.347
	V233.445z"/>
</svg>
