<?xml version="1.0" encoding="utf-8"?>
<!-- Generator: Adobe Illustrator 16.0.0, SVG Export Plug-In . SVG Version: 6.00 Build 0)  -->
<!DOCTYPE svg PUBLIC "-//W3C//DTD SVG 1.1//EN" "http://www.w3.org/Graphics/SVG/1.1/DTD/svg11.dtd">
<svg version="1.1" id="Layer_1" xmlns="http://www.w3.org/2000/svg" xmlns:xlink="http://www.w3.org/1999/xlink" x="0px" y="0px"
	 width="333.223px" height="338.519px" viewBox="0 0 333.223 338.519" enable-background="new 0 0 333.223 338.519"
	 xml:space="preserve">
<linearGradient id="SVGID_1_" gradientUnits="userSpaceOnUse" x1="107.8594" y1="125.2837" x2="260.5501" y2="238.5458">
	<stop  offset="0" style="stop-color:#29ABE2"/>
	<stop  offset="1" style="stop-color:#0071BC"/>
</linearGradient>
<path fill="url(#SVGID_1_)" d="M252.835,110.75V98.651c0-15.656-12.691-28.347-28.347-28.347H110.678
	c-15.656,0-28.347,12.691-28.347,28.347V240.52c0,15.655,12.691,28.346,28.347,28.346h113.811c15.655,0,28.347-12.69,28.347-28.346
	v-93.787c5.352-0.091,9.664-4.45,9.664-9.824v-16.336C262.499,115.2,258.187,110.84,252.835,110.75z M243.835,240.52
	c0,10.667-8.679,19.346-19.347,19.346H110.678c-10.668,0-19.347-8.679-19.347-19.346V98.651c0-10.668,8.679-19.347,19.347-19.347
	h113.811c10.668,0,19.347,8.679,19.347,19.347V240.52z"/>
<linearGradient id="SVGID_2_" gradientUnits="userSpaceOnUse" x1="107.8594" y1="125.2837" x2="260.5501" y2="238.5458">
	<stop  offset="0" style="stop-color:#29ABE2"/>
	<stop  offset="1" style="stop-color:#0071BC"/>
</linearGradient>
<path fill="url(#SVGID_2_)" d="M252.835,110.75V98.651c0-15.656-12.691-28.347-28.347-28.347H110.678
	c-15.656,0-28.347,12.691-28.347,28.347V240.52c0,15.655,12.691,28.346,28.347,28.346h113.811c15.655,0,28.347-12.69,28.347-28.346
	v-93.787c5.352-0.091,9.664-4.45,9.664-9.824v-16.336C262.499,115.2,258.187,110.84,252.835,110.75z M243.835,240.52
	c0,10.667-8.679,19.346-19.347,19.346H110.678c-10.668,0-19.347-8.679-19.347-19.346V98.651c0-10.668,8.679-19.347,19.347-19.347
	h113.811c10.668,0,19.347,8.679,19.347,19.347V240.52z"/>
<g>
	<linearGradient id="SVGID_3_" gradientUnits="userSpaceOnUse" x1="167.5835" y1="55.4722" x2="167.5835" y2="1.2319">
		<stop  offset="0" style="stop-color:#29ABE2"/>
		<stop  offset="1" style="stop-color:#0071BC"/>
	</linearGradient>
	<path fill="url(#SVGID_3_)" d="M110.678,61.305h113.811c0.129,0,0.256,0.008,0.385,0.01c-3.73-9.424-6.081-31.879-6.374-38.907
		c-0.333-8-3.499-15.333-50.916-15.333S117,14.408,116.667,22.408c-0.292,7.027-2.644,29.482-6.374,38.907
		C110.421,61.313,110.549,61.305,110.678,61.305z"/>
</g>
<g>
	<linearGradient id="SVGID_4_" gradientUnits="userSpaceOnUse" x1="167.5825" y1="277.8555" x2="167.5825" y2="332.0957">
		<stop  offset="0" style="stop-color:#29ABE2"/>
		<stop  offset="1" style="stop-color:#0071BC"/>
	</linearGradient>
	<path fill="url(#SVGID_4_)" d="M224.488,277.865H110.678c-0.129,0-0.256-0.009-0.385-0.01c3.73,9.425,6.082,31.879,6.374,38.906
		c0.333,8,3.499,15.334,50.916,15.334s50.583-7.334,50.916-15.334c0.293-7.027,2.645-29.481,6.374-38.906
		C224.744,277.856,224.617,277.865,224.488,277.865z"/>
</g>
<g>
	<linearGradient id="SVGID_5_" gradientUnits="userSpaceOnUse" x1="5.4766" y1="118.5" x2="178.1087" y2="246.5542">
		<stop  offset="0" style="stop-color:#29ABE2"/>
		<stop  offset="1" style="stop-color:#0071BC"/>
	</linearGradient>
	<path fill="url(#SVGID_5_)" d="M108.693,323.421l-65.349-0.325c-10.668,0-19.347-8.679-19.347-19.346V35.421
		c0-10.668,8.679-19.347,19.347-19.347h65.249c0.907-3.059,2.675-6.245,6.123-9H43.344c-15.656,0-28.347,12.691-28.347,28.347
		V303.75c0,15.655,12.691,28.346,28.347,28.346l71.836,0.357C111.555,329.714,109.67,326.514,108.693,323.421z"/>
	<linearGradient id="SVGID_6_" gradientUnits="userSpaceOnUse" x1="194.0322" y1="121.8096" x2="365.5908" y2="249.0673">
		<stop  offset="0" style="stop-color:#29ABE2"/>
		<stop  offset="1" style="stop-color:#0071BC"/>
	</linearGradient>
	<path fill="url(#SVGID_6_)" d="M289.652,7.074h-69.201c3.447,2.755,5.216,5.941,6.123,9h63.078
		c10.668,0,19.348,8.679,19.348,19.347v269.555c0,10.667-8.68,19.346-19.348,19.346l-63.375-0.315
		c-1.095,3.106-3.152,6.461-7.006,9.141h70.381c15.656,0,28.348-12.516,28.348-28.171V35.421
		C318,19.765,305.309,7.074,289.652,7.074z"/>
</g>
</svg>
