<?xml version="1.0" encoding="utf-8"?>
<!-- Generator: Adobe Illustrator 16.0.0, SVG Export Plug-In . SVG Version: 6.00 Build 0)  -->
<!DOCTYPE svg PUBLIC "-//W3C//DTD SVG 1.1//EN" "http://www.w3.org/Graphics/SVG/1.1/DTD/svg11.dtd">
<svg version="1.1" id="Layer_1" xmlns="http://www.w3.org/2000/svg" xmlns:xlink="http://www.w3.org/1999/xlink" x="0px" y="0px"
	 width="192.989px" height="334px" viewBox="0 0 192.989 334" enable-background="new 0 0 192.989 334" xml:space="preserve">
<path fill="#29ABE2" d="M141.779,63.664c0,3.131-2.538,5.669-5.669,5.669H59.448c-3.131,0-5.669-2.538-5.669-5.669l3-57.995
	C56.779,2.538,59.317,0,62.448,0h70.662c3.131,0,5.669,2.538,5.669,5.669L141.779,63.664z"/>
<path fill="#29ABE2" d="M142.409,270.336c0-3.131-2.538-5.669-5.669-5.669H60.078c-3.131,0-5.669,2.538-5.669,5.669l3,57.995
	c0,3.132,2.538,5.669,5.669,5.669h70.662c3.131,0,5.669-2.537,5.669-5.669L142.409,270.336z"/>
<path fill="#29ABE2" d="M186.875,198.052c-0.556-0.302-1.128-0.538-1.708-0.724c3.203-9.304,4.945-19.279,4.945-29.661
	c0-9.828-1.57-19.288-4.454-28.163c0.723-0.191,1.436-0.458,2.124-0.825c4.791-2.555,6.604-8.512,4.049-13.302l-4.087-7.661
	c-2.556-4.792-8.511-6.604-13.302-4.048c-0.504,0.269-0.967,0.583-1.403,0.921c-1.139-1.589-2.312-3.153-3.549-4.665
	c1.712,1.597,2.745,2.585,2.745,2.585S164.851,101.334,159.518,85s-4.667-25-4.667-25l-10.666-5.76v25.093
	c0,0-14.702-7.103-45.685-7.103c-0.121,0-0.232,0.001-0.352,0.001c-0.12,0-0.231-0.001-0.353-0.001
	c-30.982,0-45.685,7.103-45.685,7.103V54.24L41.446,60c0,0,0.666,8.667-4.667,25c-5.326,16.312-12.696,27.478-12.716,27.507
	C12.4,127.856,5.481,146.958,5.481,167.667c0,23.317,8.773,44.598,23.213,60.774c2.563,4.86,5.919,11.999,8.714,20.559
	c5.333,16.334,4.667,25,4.667,25l10.666,5.76v-25.093c0,0,14.702,7.103,45.685,7.103c0.121,0,0.232,0,0.353-0.001
	c0.119,0.001,0.23,0.001,0.352,0.001c30.982,0,45.685-7.103,45.685-7.103v25.093l10.666-5.76c0,0-0.666-8.666,4.667-25
	c4.482-13.728,10.411-23.809,12.189-26.677c0.322,0.229,0.656,0.447,1.013,0.641c4.772,2.591,10.741,0.822,13.333-3.95l4.141-7.631
	C193.415,206.609,191.646,200.643,186.875,198.052z M171.732,222.564c0.112-0.148,0.216-0.303,0.327-0.452
	c0.028,0.021,0.056,0.043,0.084,0.063C172.018,222.294,171.886,222.419,171.732,222.564z M97.796,250.334
	c-45.94,0-83.315-37.084-83.315-82.667C14.481,122.084,51.856,85,97.796,85s83.315,37.084,83.315,82.667
	C181.112,213.25,143.737,250.334,97.796,250.334z"/>
</svg>
